# xmcd
#
# Track frame offsets:
#	150
#	15313
#	32883
#	50883
#	68596
#	86936
#	104991
#	117833
#	135430
#	153092
#	170087
#	185949
#	200680
#	214931
#
# Disc length: 3144 seconds
#
# Revision: 1
# Processed by: cddbd v1.5.1PL2 Copyright (c) Steve Scherf et al.
# Submitted via: audiograbber 1.83.01
#
DISCID=d30c460e
DTITLE=Koudede - Alam'i
DYEAR=2006
DGENRE=Desert blues
TTITLE0=Takriza
TTITLE1=Alam'i
TTITLE2=Souvenir nam adjosa
TTITLE3=Timagiren
TTITLE4=Hatimanine
TTITLE5=Zagzan
TTITLE6=Marou-Marou
TTITLE7=Diran-Diran
TTITLE8=Fellani
TTITLE9=Cure salée
TTITLE10=Gandefabou
TTITLE11=Le 24 tada
TTITLE12=Ewilla
TTITLE13=Alghargue
EXTD=
EXTT0=
EXTT1=
EXTT2=
EXTT3=
EXTT4=
EXTT5=
EXTT6=
EXTT7=
EXTT8=
EXTT9=
EXTT10=
EXTT11=
EXTT12=
EXTT13=
PLAYORDER=
